<?xml version="1.0" encoding="utf-8"?>
<!-- Generator: Adobe Illustrator 23.0.5, SVG Export Plug-In . SVG Version: 6.00 Build 0)  -->
<svg version="1.1" id="Capa_1" xmlns="http://www.w3.org/2000/svg" xmlns:xlink="http://www.w3.org/1999/xlink" x="0px" y="0px"
	 viewBox="0 0 190 50" style="enable-background:new 0 0 190 50;" xml:space="preserve">
<style type="text/css">
	.st0{fill:#FFFFFF;}
	.st1{font-family:'NulshockRg-Bold';}
	.st2{font-size:6.98px;}
</style>
<g>
	<path class="st0" d="M12.4,13.7v15.4H6V13.7H1.1V7.5h16.3v6.2H12.4z"/>
	<path class="st0" d="M26.1,13.7v15.4h-6.4V7.5h8.4c3.7,0,6.5,0.8,8.6,2.5c2.5,2,3.7,4.7,3.7,8.1c0,3.3-1.1,5.9-3.2,8
		s-4.8,3.1-8.2,3.1c-0.4,0-1,0-1.9-0.1v-6.3h1c3.7,0,5.6-1.6,5.6-4.7c0-2.9-1.8-4.4-5.5-4.4H26.1z"/>
	<path class="st0" d="M58.1,18.6l6.7,0.2c-0.4,3.5-1.6,6.2-3.6,8.1c-2,1.9-4.5,2.9-7.7,2.9c-3.2,0-5.9-1.1-8.1-3.2
		c-2.2-2.2-3.3-4.8-3.3-8c0-3.2,1.1-5.9,3.3-8.1C47.7,8.1,50.4,7,53.6,7c3.2,0,5.8,1.1,8,3.2c1.5,1.5,2.5,3.6,3.1,6.2l-6.9,0.5
		c-0.8-2.4-2.2-3.5-4.4-3.5c-1.4,0-2.5,0.5-3.4,1.4s-1.3,2.2-1.3,3.6c0,1.4,0.4,2.6,1.3,3.5c0.9,0.9,2,1.4,3.3,1.4
		c1.4,0,2.4-0.4,3.3-1.2C57.4,21.3,57.9,20.1,58.1,18.6z"/>
	<path class="st0" d="M78.1,7c3.1,0,5.7,1.1,7.9,3.3c2.2,2.2,3.3,4.9,3.3,8c0,3.2-1.1,5.8-3.3,8c-2.2,2.2-4.9,3.3-8,3.3
		c-3.1,0-5.8-1.1-8-3.3c-2.2-2.2-3.3-4.9-3.3-8c0-3.2,1.1-5.8,3.3-8C72.1,8.1,74.8,7,78.1,7z M77.9,13.3c-1.3,0-2.4,0.5-3.4,1.5
		c-0.9,1-1.4,2.1-1.4,3.5s0.5,2.5,1.4,3.5c0.9,1,2.1,1.5,3.4,1.5c1.3,0,2.5-0.5,3.4-1.4c0.9-1,1.4-2.1,1.4-3.5
		c0-1.4-0.5-2.6-1.4-3.5C80.3,13.8,79.2,13.3,77.9,13.3z"/>
	<path class="st0" d="M91.8,29.1v-14c0-2.5,0.7-4.4,2.2-5.9C95.5,7.7,97.5,7,99.9,7c2.4,0,4.3,0.7,5.6,2.2c1.3,1.4,1.9,3.5,1.9,6.2
		v13.8H101V15.3c0-1.3-0.5-2-1.4-2c-0.9,0-1.4,0.7-1.4,2v13.8H91.8z"/>
	<path class="st0" d="M125.9,7.5v21.6h-6.4V7.5H125.9z"/>
	<path class="st0" d="M136.6,7.5v21.6h-6.4V7.5H136.6z"/>
	<path class="st0" d="M147.4,7.5v21.6H141V7.5H147.4z"/>
	<path class="st0" d="M158.1,7.5v21.6h-6.4V7.5H158.1z"/>
	<path class="st0" d="M166.4,22c1,0,1.9,0.4,2.7,1.1c0.7,0.7,1.1,1.6,1.1,2.7c0,1-0.4,1.9-1.1,2.6c-0.7,0.7-1.6,1.1-2.7,1.1
		c-1.1,0-2-0.4-2.7-1.1c-0.7-0.7-1.1-1.6-1.1-2.7c0-1.1,0.4-2,1.1-2.7C164.5,22.4,165.4,22,166.4,22z"/>
	<path class="st0" d="M174.1,20.7v-4.8c0-2.8,0.7-5,2.1-6.6c1.4-1.6,3.3-2.4,5.6-2.4s4.3,0.8,5.6,2.4c1.4,1.6,2.1,3.8,2.1,6.6v4.8
		c0,2.8-0.7,5-2.1,6.6c-1.4,1.6-3.3,2.4-5.6,2.4s-4.3-0.8-5.6-2.4C174.8,25.6,174.1,23.5,174.1,20.7z M180.2,14.7V22
		c0,1.3,0.5,2,1.5,2c1,0,1.6-0.7,1.6-2v-7.3c0-1.3-0.5-2-1.6-2C180.7,12.7,180.2,13.4,180.2,14.7z"/>
</g>
<text transform="matrix(1 0 0 1 0.5156 42.2677)" class="st0 st1 st2">TECNOLOGIA, DESARROLLO Y CONTROL 4.0</text>
</svg>
